<?xml version="1.0" encoding="UTF-8" standalone="no"?>
<!DOCTYPE svg PUBLIC "-//W3C//DTD SVG 1.1//EN" "http://www.w3.org/Graphics/SVG/1.1/DTD/svg11.dtd">
<svg xmlns="http://www.w3.org/2000/svg" version="1.1" viewBox="0.00 0.00 225.00 225.00">
<g stroke-width="2.00" fill="none" stroke-linecap="butt">
<path stroke="#ca7cc7" vector-effect="non-scaling-stroke" d="
  M 89.81 71.29
  Q 82.91 79.08 81.42 88.75
  Q 79.02 104.32 88.49 116.65
  A 2.02 1.99 33.3 0 1 88.85 118.33
  Q 87.52 123.96 85.98 129.84
  Q 85.60 131.30 86.04 132.69
  Q 86.22 133.26 86.80 133.41
  Q 88.49 133.84 90.18 133.41
  Q 97.49 131.56 107.14 129.34
  C 109.07 128.90 111.09 129.76 113.01 129.91
  Q 127.24 131.00 139.02 121.59
  C 140.94 120.06 140.92 117.02 138.34 116.16
  Q 134.07 114.74 129.54 114.00
  Q 128.81 113.88 128.15 114.24
  Q 114.52 121.64 102.43 113.00
  C 96.01 108.42 92.40 99.75 93.30 92.00
  Q 94.19 84.39 100.10 78.32"
/>
<path stroke="#ec7ac5" vector-effect="non-scaling-stroke" d="
  M 100.10 78.32
  Q 113.14 67.18 127.81 75.12
  C 129.78 76.19 131.29 77.99 133.34 78.99
  A 1.70 1.68 -37.3 0 0 134.41 79.13
  C 136.79 78.64 147.54 77.29 143.13 72.16
  C 136.76 64.76 128.61 60.43 118.80 59.68
  Q 102.14 58.42 89.81 71.29"
/>
<path stroke="#c3049a" vector-effect="non-scaling-stroke" d="
  M 100.10 78.32
  Q 99.14 76.00 97.67 75.60
  A 2.11 2.05 -15.7 0 1 96.84 75.15
  Q 93.95 72.62 89.81 71.29"
/>
<path stroke="#ca7cc7" vector-effect="non-scaling-stroke" d="
  M 109.19 94.46
  A 2.25 2.25 0.0 0 0 106.94 92.21
  A 2.25 2.25 0.0 0 0 104.69 94.46
  A 2.25 2.25 0.0 0 0 106.94 96.71
  A 2.25 2.25 0.0 0 0 109.19 94.46"
/>
<path stroke="#ca7cc7" vector-effect="non-scaling-stroke" d="
  M 118.50 94.42
  A 2.24 2.24 0.0 0 0 116.26 92.18
  A 2.24 2.24 0.0 0 0 114.02 94.42
  A 2.24 2.24 0.0 0 0 116.26 96.66
  A 2.24 2.24 0.0 0 0 118.50 94.42"
/>
<path stroke="#ca7cc7" vector-effect="non-scaling-stroke" d="
  M 127.87 94.44
  A 2.26 2.26 0.0 0 0 125.61 92.18
  A 2.26 2.26 0.0 0 0 123.35 94.44
  A 2.26 2.26 0.0 0 0 125.61 96.70
  A 2.26 2.26 0.0 0 0 127.87 94.44"
/>
<path stroke="#7c7d7b" vector-effect="non-scaling-stroke" d="
  M 51.48 149.06
  C 51.73 145.21 55.76 144.11 58.44 146.22
  A 0.82 0.80 -46.2 0 0 59.47 146.19
  Q 59.73 145.96 59.89 145.66
  Q 60.43 144.66 59.45 144.09
  Q 56.27 142.22 53.12 143.28
  C 47.00 145.33 47.46 154.44 54.08 155.42
  Q 57.07 155.86 59.72 154.43
  A 0.94 0.93 -28.8 0 0 60.09 153.17
  C 59.63 152.33 58.71 152.05 57.88 152.55
  C 54.89 154.33 51.26 152.70 51.48 149.06"
/>
<path stroke="#7c7d7b" vector-effect="non-scaling-stroke" d="
  M 70.74 150.87
  A 0.58 0.58 0.0 0 1 71.31 150.25
  L 76.19 150.22
  A 0.58 0.58 0.0 0 1 76.78 150.81
  L 76.75 154.83
  A 0.58 0.58 0.0 0 0 77.32 155.41
  L 78.89 155.43
  A 0.58 0.58 0.0 0 0 79.48 154.85
  L 79.45 143.54
  A 0.58 0.58 0.0 0 0 78.85 142.96
  L 77.29 143.03
  A 0.58 0.58 0.0 0 0 76.73 143.61
  L 76.76 147.49
  A 0.58 0.58 0.0 0 1 76.17 148.07
  L 71.40 148.01
  A 0.58 0.58 0.0 0 1 70.82 147.41
  L 70.91 143.69
  A 0.58 0.58 0.0 0 0 70.38 143.10
  L 68.94 142.98
  A 0.58 0.58 0.0 0 0 68.31 143.55
  L 68.24 154.76
  A 0.58 0.58 0.0 0 0 68.80 155.34
  L 70.43 155.40
  A 0.58 0.58 0.0 0 0 71.03 154.78
  L 70.74 150.87"
/>
<path stroke="#7c7d7b" vector-effect="non-scaling-stroke" d="
  M 96.59 153.24
  Q 96.96 156.18 100.03 155.27
  Q 100.26 155.20 100.16 154.98
  L 95.17 143.99
  A 1.90 1.90 0.0 0 0 91.70 144.00
  L 86.85 154.83
  Q 86.56 155.49 87.27 155.43
  L 89.11 155.28
  Q 89.77 155.23 89.93 154.59
  L 90.29 153.24
  A 0.76 0.74 -82.4 0 1 91.01 152.68
  L 95.92 152.65
  Q 96.52 152.64 96.59 153.24"
/>
<path stroke="#7c7d7b" vector-effect="non-scaling-stroke" d="
  M 131.95 152.53
  L 133.50 155.47
  Q 133.61 155.68 133.81 155.58
  L 134.11 155.45
  Q 134.49 155.27 134.32 154.88
  L 129.15 143.56
  A 0.91 0.91 0.0 0 0 127.49 143.56
  L 122.35 154.92
  Q 122.14 155.38 122.60 155.59
  L 122.89 155.72
  Q 122.96 155.75 123.00 155.68
  L 124.70 152.63
  Q 124.98 152.13 125.56 152.12
  L 131.23 152.09
  Q 131.72 152.09 131.95 152.53"
/>
<path stroke="#7c7d7b" vector-effect="non-scaling-stroke" d="
  M 144.22 151.44
  C 146.79 151.58 151.68 151.78 151.96 147.97
  C 152.38 142.50 146.66 142.86 143.00 143.02
  Q 142.46 143.04 142.46 143.58
  L 142.51 155.17
  A 0.36 0.36 0.0 0 0 142.99 155.51
  L 143.60 155.31
  Q 143.65 155.30 143.65 155.24
  Q 143.52 153.45 143.56 152.05
  Q 143.58 151.41 144.22 151.44"
/>
<path stroke="#7c7d7b" vector-effect="non-scaling-stroke" d="
  M 162.56 151.44
  C 165.73 151.56 170.17 151.78 170.29 147.27
  C 170.41 142.51 164.26 142.90 161.21 143.00
  Q 160.71 143.02 160.71 143.52
  L 160.74 155.01
  Q 160.74 155.46 161.18 155.46
  L 161.47 155.46
  Q 161.92 155.46 161.90 155.01
  L 161.77 152.24
  A 0.76 0.76 0.0 0 1 162.56 151.44"
/>
<path stroke="#7c7d7b" vector-effect="non-scaling-stroke" d="
  M 112.71 145.25
  L 115.48 145.28
  Q 116.04 145.28 116.15 144.74
  Q 116.23 144.33 116.18 143.93
  A 0.88 0.87 85.0 0 0 115.31 143.19
  L 106.01 143.23
  Q 105.25 143.23 105.31 143.99
  L 105.34 144.48
  A 0.89 0.87 -2.1 0 0 106.23 145.29
  L 109.01 145.26
  Q 109.51 145.25 109.51 145.76
  L 109.49 154.71
  Q 109.49 155.43 110.21 155.43
  L 111.48 155.43
  Q 112.13 155.43 112.13 154.77
  L 112.16 145.79
  Q 112.16 145.24 112.71 145.25"
/>
<path stroke="#7c7d7b" vector-effect="non-scaling-stroke" d="
  M 136.10 164.96
  Q 135.24 163.32 136.23 160.91
  A 0.21 0.21 0.0 0 0 136.08 160.63
  L 135.81 160.58
  A 0.15 0.14 14.5 0 0 135.65 160.67
  Q 134.92 162.78 135.33 164.91
  Q 135.43 165.43 135.95 165.54
  Q 136.34 165.62 136.76 165.42
  Q 137.01 165.30 136.74 165.36
  Q 136.69 165.37 136.63 165.35
  Q 136.26 165.28 136.10 164.96"
/>
<path stroke="#7c7d7b" vector-effect="non-scaling-stroke" d="
  M 86.13 162.29
  Q 86.89 160.91 89.07 161.16
  Q 90.25 161.29 89.12 160.90
  Q 87.40 160.30 86.13 161.58
  Q 85.53 162.20 85.68 163.03
  Q 85.95 164.48 87.09 165.22
  C 88.35 166.02 89.81 165.18 89.87 163.67
  Q 89.89 163.10 89.48 163.49
  Q 89.20 163.75 89.21 164.14
  A 0.77 0.77 0.0 0 1 88.78 164.86
  Q 87.49 165.49 86.21 163.69
  A 1.33 1.31 42.1 0 1 86.13 162.29"
/>
<path stroke="#7c7d7b" vector-effect="non-scaling-stroke" d="
  M 103.16 163.12
  Q 102.23 161.96 103.28 161.12
  Q 103.72 160.78 103.16 160.76
  Q 102.63 160.75 102.71 161.53
  A 1.45 1.35 55.3 0 1 102.61 162.23
  Q 102.13 163.32 102.72 163.36
  Q 102.75 163.36 102.78 163.36
  L 103.09 163.30
  A 0.11 0.11 0.0 0 0 103.16 163.12"
/>
<path stroke="#7c7d7b" vector-effect="non-scaling-stroke" d="
  M 111.28 161.23
  Q 111.49 161.34 111.72 161.38
  Q 112.61 161.55 111.90 160.99
  Q 111.68 160.81 111.40 160.76
  C 108.64 160.28 107.29 163.09 109.50 165.15
  A 1.77 1.76 -33.7 0 0 111.33 165.51
  Q 112.36 165.11 112.89 164.05
  Q 112.99 163.86 112.81 163.76
  L 112.80 163.75
  Q 112.63 163.65 112.55 163.83
  Q 111.53 166.04 109.43 164.49
  A 1.65 1.63 21.0 0 1 108.77 163.03
  Q 108.89 161.60 110.21 161.16
  Q 110.76 160.97 111.28 161.23"
/>
<path stroke="#7c7d7b" vector-effect="non-scaling-stroke" d="
  M 121.75 160.89
  Q 122.06 160.88 122.07 160.88
  Q 122.48 160.91 122.08 160.86
  Q 121.23 160.75 120.27 160.74
  Q 119.69 160.73 119.50 161.28
  L 119.38 161.63
  Q 118.97 162.79 119.76 161.85
  Q 120.49 160.96 121.75 160.89"
/>
<path stroke="#7c7d7b" vector-effect="non-scaling-stroke" d="
  M 129.74 161.26
  L 129.73 164.85
  Q 129.73 165.52 130.00 164.91
  Q 130.85 163.07 130.12 161.19
  Q 129.74 160.24 129.74 161.26"
/>
<path stroke="#7c7d7b" vector-effect="non-scaling-stroke" d="
  M 140.08 162.81
  Q 139.72 161.10 141.82 161.10
  A 0.85 0.84 -87.2 0 1 142.66 162.03
  Q 142.60 162.61 143.01 162.53
  Q 143.02 162.53 143.03 162.52
  L 143.03 162.52
  Q 143.21 162.47 143.15 162.29
  Q 142.37 159.80 139.74 161.20
  Q 139.62 161.26 139.62 161.40
  L 139.74 164.66
  Q 139.75 164.82 139.84 164.69
  Q 141.03 162.93 142.38 164.86
  Q 142.89 165.58 142.81 164.70
  Q 142.70 163.34 141.31 163.62
  A 1.04 1.04 0.0 0 1 140.08 162.81"
/>
<path stroke="#7c7d7b" vector-effect="non-scaling-stroke" d="
  M 84.04 163.41
  Q 84.01 161.89 82.83 161.10
  Q 82.54 160.90 82.40 161.23
  L 82.30 161.47
  Q 82.15 161.82 82.51 161.94
  Q 83.70 162.35 83.69 163.62
  Q 83.68 164.00 83.83 164.32
  Q 84.04 164.79 84.56 164.98
  Q 85.00 165.13 84.88 164.69
  Q 84.78 164.33 84.49 164.16
  Q 84.06 163.91 84.04 163.41"
/>
<path stroke="#7c7d7b" vector-effect="non-scaling-stroke" d="
  M 95.34 162.45
  Q 95.12 163.57 95.40 164.72
  Q 95.59 165.49 95.66 164.70
  Q 95.82 163.02 95.54 161.39
  Q 95.46 160.90 95.12 161.26
  Q 94.86 161.54 95.16 161.85
  A 0.72 0.69 29.2 0 1 95.34 162.45"
/>
<path stroke="#7c7d7b" vector-effect="non-scaling-stroke" d="
  M 98.19 162.92
  Q 98.47 162.82 98.42 162.53
  Q 98.29 161.68 97.70 161.12
  A 0.35 0.34 16.5 0 0 97.12 161.43
  Q 97.22 161.93 97.45 162.32
  Q 97.72 162.78 97.47 163.26
  Q 97.09 163.98 97.39 164.70
  Q 97.64 165.27 97.71 164.65
  Q 97.77 164.10 97.77 163.55
  Q 97.76 163.08 98.19 162.92"
/>
<path stroke="#7c7d7b" vector-effect="non-scaling-stroke" d="
  M 133.10 161.71
  Q 132.49 163.28 133.24 164.80
  Q 133.62 165.58 133.59 164.71
  L 133.50 161.78
  Q 133.47 160.78 133.10 161.71"
/>
<path stroke="#7c7d7b" vector-effect="non-scaling-stroke" d="
  M 78.58 162.26
  Q 78.47 163.50 78.62 164.63
  Q 78.75 165.56 78.95 164.64
  Q 79.20 163.46 78.86 162.23
  Q 78.65 161.45 78.58 162.26"
/>
<path stroke="#7c7d7b" vector-effect="non-scaling-stroke" d="
  M 126.15 164.00
  Q 126.44 164.64 126.07 164.92
  Q 125.62 165.26 126.15 165.06
  Q 126.46 164.94 126.68 164.69
  Q 127.03 164.30 126.70 163.89
  Q 125.85 162.84 124.56 162.43
  Q 123.73 162.16 124.42 162.69
  Q 125.08 163.20 125.85 163.66
  A 0.78 0.74 -88.2 0 1 126.15 164.00"
/>
<path stroke="#7c7d7b" vector-effect="non-scaling-stroke" d="
  M 92.23 164.95
  Q 91.35 164.14 91.44 162.78
  Q 91.45 162.71 91.39 162.74
  Q 91.34 162.75 91.30 162.77
  Q 91.23 162.79 91.23 162.86
  Q 91.23 163.75 91.27 164.62
  Q 91.30 165.20 91.87 165.33
  Q 92.73 165.53 93.57 165.48
  Q 94.16 165.44 93.62 165.21
  Q 93.46 165.14 93.29 165.19
  Q 92.69 165.37 92.23 164.95"
/>
<path stroke="#7c7d7b" vector-effect="non-scaling-stroke" d="
  M 146.08 165.52
  Q 146.54 165.86 147.06 165.56
  Q 147.46 165.33 147.00 165.34
  L 145.60 165.35
  A 0.87 0.86 -0.3 0 1 144.72 164.49
  Q 144.72 163.56 145.28 163.24
  Q 145.49 163.12 145.26 163.04
  Q 145.19 163.02 145.14 162.98
  Q 144.73 162.62 144.66 163.16
  Q 144.61 163.55 144.43 163.91
  Q 144.16 164.48 144.44 165.00
  Q 144.72 165.54 145.38 165.38
  Q 145.76 165.28 146.08 165.52"
/>
<path stroke="#7c7d7b" vector-effect="non-scaling-stroke" d="
  M 80.98 164.48
  Q 80.89 164.83 81.23 164.70
  Q 82.14 164.37 82.04 163.43
  Q 81.97 162.75 81.56 163.30
  Q 81.15 163.85 80.98 164.48"
/>
<path stroke="#7c7d7b" vector-effect="non-scaling-stroke" d="
  M 100.71 164.12
  C 100.48 163.87 100.09 163.62 99.80 163.47
  Q 99.24 163.18 99.46 163.77
  Q 99.74 164.47 100.29 165.10
  A 0.38 0.38 0.0 0 0 100.94 164.90
  Q 101.01 164.45 100.71 164.12"
/>
<path stroke="#7c7d7b" vector-effect="non-scaling-stroke" d="
  M 119.99 164.80
  Q 119.77 164.48 119.65 164.08
  Q 119.38 163.14 119.28 164.11
  Q 119.19 165.01 120.00 165.42
  Q 120.18 165.51 120.37 165.52
  Q 121.35 165.58 120.46 165.18
  C 120.29 165.10 120.09 164.95 119.99 164.80"
/>
<path stroke="#7c7d7b" vector-effect="non-scaling-stroke" d="
  M 104.26 165.35
  C 103.60 165.28 102.96 164.96 102.82 164.25
  Q 102.66 163.45 102.46 164.24
  Q 102.25 165.04 103.01 165.40
  A 1.13 1.01 52.4 0 0 103.54 165.50
  Q 103.91 165.47 104.26 165.46
  Q 105.28 165.45 104.26 165.35"
/>
<path stroke="#7c7d7b" vector-effect="non-scaling-stroke" d="
  M 91.56 150.26
  A 0.34 0.34 0.0 0 0 91.87 150.72
  L 94.97 150.74
  A 0.34 0.34 0.0 0 0 95.29 150.28
  L 93.76 146.27
  A 0.34 0.34 0.0 0 0 93.13 146.27
  L 91.56 150.26"
/>
<path stroke="#7c7d7b" vector-effect="non-scaling-stroke" d="
  M 125.44 150.77
  A 0.35 0.35 0.0 0 0 125.77 151.26
  L 130.90 151.21
  A 0.35 0.35 0.0 0 0 131.21 150.72
  L 128.60 144.87
  A 0.35 0.35 0.0 0 0 127.95 144.87
  L 125.44 150.77"
/>
<path stroke="#7c7d7b" vector-effect="non-scaling-stroke" d="
  M 143.49 144.36
  L 143.55 150.22
  A 0.32 0.32 0.0 0 0 143.87 150.54
  L 146.90 150.51
  A 3.99 3.02 -0.5 0 0 150.86 147.46
  L 150.86 147.00
  A 3.99 3.02 -0.5 0 0 146.84 144.01
  L 143.81 144.04
  A 0.32 0.32 0.0 0 0 143.49 144.36"
/>
<path stroke="#7c7d7b" vector-effect="non-scaling-stroke" d="
  M 161.81 144.70
  L 161.79 149.80
  A 0.64 0.64 0.0 0 0 162.43 150.44
  L 165.51 150.45
  A 3.52 2.76 0.2 0 0 169.04 147.70
  L 169.04 146.84
  A 3.52 2.76 0.2 0 0 165.53 144.07
  L 162.45 144.06
  A 0.64 0.64 0.0 0 0 161.81 144.70"
/>
</g>
<path fill="#f2f2f2" d="
  M 0.00 0.00
  L 225.00 0.00
  L 225.00 225.00
  L 0.00 225.00
  L 0.00 0.00
  Z
  M 89.81 71.29
  Q 82.91 79.08 81.42 88.75
  Q 79.02 104.32 88.49 116.65
  A 2.02 1.99 33.3 0 1 88.85 118.33
  Q 87.52 123.96 85.98 129.84
  Q 85.60 131.30 86.04 132.69
  Q 86.22 133.26 86.80 133.41
  Q 88.49 133.84 90.18 133.41
  Q 97.49 131.56 107.14 129.34
  C 109.07 128.90 111.09 129.76 113.01 129.91
  Q 127.24 131.00 139.02 121.59
  C 140.94 120.06 140.92 117.02 138.34 116.16
  Q 134.07 114.74 129.54 114.00
  Q 128.81 113.88 128.15 114.24
  Q 114.52 121.64 102.43 113.00
  C 96.01 108.42 92.40 99.75 93.30 92.00
  Q 94.19 84.39 100.10 78.32
  Q 113.14 67.18 127.81 75.12
  C 129.78 76.19 131.29 77.99 133.34 78.99
  A 1.70 1.68 -37.3 0 0 134.41 79.13
  C 136.79 78.64 147.54 77.29 143.13 72.16
  C 136.76 64.76 128.61 60.43 118.80 59.68
  Q 102.14 58.42 89.81 71.29
  Z
  M 109.19 94.46
  A 2.25 2.25 0.0 0 0 106.94 92.21
  A 2.25 2.25 0.0 0 0 104.69 94.46
  A 2.25 2.25 0.0 0 0 106.94 96.71
  A 2.25 2.25 0.0 0 0 109.19 94.46
  Z
  M 118.50 94.42
  A 2.24 2.24 0.0 0 0 116.26 92.18
  A 2.24 2.24 0.0 0 0 114.02 94.42
  A 2.24 2.24 0.0 0 0 116.26 96.66
  A 2.24 2.24 0.0 0 0 118.50 94.42
  Z
  M 127.87 94.44
  A 2.26 2.26 0.0 0 0 125.61 92.18
  A 2.26 2.26 0.0 0 0 123.35 94.44
  A 2.26 2.26 0.0 0 0 125.61 96.70
  A 2.26 2.26 0.0 0 0 127.87 94.44
  Z
  M 51.48 149.06
  C 51.73 145.21 55.76 144.11 58.44 146.22
  A 0.82 0.80 -46.2 0 0 59.47 146.19
  Q 59.73 145.96 59.89 145.66
  Q 60.43 144.66 59.45 144.09
  Q 56.27 142.22 53.12 143.28
  C 47.00 145.33 47.46 154.44 54.08 155.42
  Q 57.07 155.86 59.72 154.43
  A 0.94 0.93 -28.8 0 0 60.09 153.17
  C 59.63 152.33 58.71 152.05 57.88 152.55
  C 54.89 154.33 51.26 152.70 51.48 149.06
  Z
  M 70.74 150.87
  A 0.58 0.58 0.0 0 1 71.31 150.25
  L 76.19 150.22
  A 0.58 0.58 0.0 0 1 76.78 150.81
  L 76.75 154.83
  A 0.58 0.58 0.0 0 0 77.32 155.41
  L 78.89 155.43
  A 0.58 0.58 0.0 0 0 79.48 154.85
  L 79.45 143.54
  A 0.58 0.58 0.0 0 0 78.85 142.96
  L 77.29 143.03
  A 0.58 0.58 0.0 0 0 76.73 143.61
  L 76.76 147.49
  A 0.58 0.58 0.0 0 1 76.17 148.07
  L 71.40 148.01
  A 0.58 0.58 0.0 0 1 70.82 147.41
  L 70.91 143.69
  A 0.58 0.58 0.0 0 0 70.38 143.10
  L 68.94 142.98
  A 0.58 0.58 0.0 0 0 68.31 143.55
  L 68.24 154.76
  A 0.58 0.58 0.0 0 0 68.80 155.34
  L 70.43 155.40
  A 0.58 0.58 0.0 0 0 71.03 154.78
  L 70.74 150.87
  Z
  M 96.59 153.24
  Q 96.96 156.18 100.03 155.27
  Q 100.26 155.20 100.16 154.98
  L 95.17 143.99
  A 1.90 1.90 0.0 0 0 91.70 144.00
  L 86.85 154.83
  Q 86.56 155.49 87.27 155.43
  L 89.11 155.28
  Q 89.77 155.23 89.93 154.59
  L 90.29 153.24
  A 0.76 0.74 -82.4 0 1 91.01 152.68
  L 95.92 152.65
  Q 96.52 152.64 96.59 153.24
  Z
  M 131.95 152.53
  L 133.50 155.47
  Q 133.61 155.68 133.81 155.58
  L 134.11 155.45
  Q 134.49 155.27 134.32 154.88
  L 129.15 143.56
  A 0.91 0.91 0.0 0 0 127.49 143.56
  L 122.35 154.92
  Q 122.14 155.38 122.60 155.59
  L 122.89 155.72
  Q 122.96 155.75 123.00 155.68
  L 124.70 152.63
  Q 124.98 152.13 125.56 152.12
  L 131.23 152.09
  Q 131.72 152.09 131.95 152.53
  Z
  M 144.22 151.44
  C 146.79 151.58 151.68 151.78 151.96 147.97
  C 152.38 142.50 146.66 142.86 143.00 143.02
  Q 142.46 143.04 142.46 143.58
  L 142.51 155.17
  A 0.36 0.36 0.0 0 0 142.99 155.51
  L 143.60 155.31
  Q 143.65 155.30 143.65 155.24
  Q 143.52 153.45 143.56 152.05
  Q 143.58 151.41 144.22 151.44
  Z
  M 162.56 151.44
  C 165.73 151.56 170.17 151.78 170.29 147.27
  C 170.41 142.51 164.26 142.90 161.21 143.00
  Q 160.71 143.02 160.71 143.52
  L 160.74 155.01
  Q 160.74 155.46 161.18 155.46
  L 161.47 155.46
  Q 161.92 155.46 161.90 155.01
  L 161.77 152.24
  A 0.76 0.76 0.0 0 1 162.56 151.44
  Z
  M 112.71 145.25
  L 115.48 145.28
  Q 116.04 145.28 116.15 144.74
  Q 116.23 144.33 116.18 143.93
  A 0.88 0.87 85.0 0 0 115.31 143.19
  L 106.01 143.23
  Q 105.25 143.23 105.31 143.99
  L 105.34 144.48
  A 0.89 0.87 -2.1 0 0 106.23 145.29
  L 109.01 145.26
  Q 109.51 145.25 109.51 145.76
  L 109.49 154.71
  Q 109.49 155.43 110.21 155.43
  L 111.48 155.43
  Q 112.13 155.43 112.13 154.77
  L 112.16 145.79
  Q 112.16 145.24 112.71 145.25
  Z
  M 136.10 164.96
  Q 135.24 163.32 136.23 160.91
  A 0.21 0.21 0.0 0 0 136.08 160.63
  L 135.81 160.58
  A 0.15 0.14 14.5 0 0 135.65 160.67
  Q 134.92 162.78 135.33 164.91
  Q 135.43 165.43 135.95 165.54
  Q 136.34 165.62 136.76 165.42
  Q 137.01 165.30 136.74 165.36
  Q 136.69 165.37 136.63 165.35
  Q 136.26 165.28 136.10 164.96
  Z
  M 86.13 162.29
  Q 86.89 160.91 89.07 161.16
  Q 90.25 161.29 89.12 160.90
  Q 87.40 160.30 86.13 161.58
  Q 85.53 162.20 85.68 163.03
  Q 85.95 164.48 87.09 165.22
  C 88.35 166.02 89.81 165.18 89.87 163.67
  Q 89.89 163.10 89.48 163.49
  Q 89.20 163.75 89.21 164.14
  A 0.77 0.77 0.0 0 1 88.78 164.86
  Q 87.49 165.49 86.21 163.69
  A 1.33 1.31 42.1 0 1 86.13 162.29
  Z
  M 103.16 163.12
  Q 102.23 161.96 103.28 161.12
  Q 103.72 160.78 103.16 160.76
  Q 102.63 160.75 102.71 161.53
  A 1.45 1.35 55.3 0 1 102.61 162.23
  Q 102.13 163.32 102.72 163.36
  Q 102.75 163.36 102.78 163.36
  L 103.09 163.30
  A 0.11 0.11 0.0 0 0 103.16 163.12
  Z
  M 111.28 161.23
  Q 111.49 161.34 111.72 161.38
  Q 112.61 161.55 111.90 160.99
  Q 111.68 160.81 111.40 160.76
  C 108.64 160.28 107.29 163.09 109.50 165.15
  A 1.77 1.76 -33.7 0 0 111.33 165.51
  Q 112.36 165.11 112.89 164.05
  Q 112.99 163.86 112.81 163.76
  L 112.80 163.75
  Q 112.63 163.65 112.55 163.83
  Q 111.53 166.04 109.43 164.49
  A 1.65 1.63 21.0 0 1 108.77 163.03
  Q 108.89 161.60 110.21 161.16
  Q 110.76 160.97 111.28 161.23
  Z
  M 121.75 160.89
  Q 122.06 160.88 122.07 160.88
  Q 122.48 160.91 122.08 160.86
  Q 121.23 160.75 120.27 160.74
  Q 119.69 160.73 119.50 161.28
  L 119.38 161.63
  Q 118.97 162.79 119.76 161.85
  Q 120.49 160.96 121.75 160.89
  Z
  M 129.74 161.26
  L 129.73 164.85
  Q 129.73 165.52 130.00 164.91
  Q 130.85 163.07 130.12 161.19
  Q 129.74 160.24 129.74 161.26
  Z
  M 140.08 162.81
  Q 139.72 161.10 141.82 161.10
  A 0.85 0.84 -87.2 0 1 142.66 162.03
  Q 142.60 162.61 143.01 162.53
  Q 143.02 162.53 143.03 162.52
  L 143.03 162.52
  Q 143.21 162.47 143.15 162.29
  Q 142.37 159.80 139.74 161.20
  Q 139.62 161.26 139.62 161.40
  L 139.74 164.66
  Q 139.75 164.82 139.84 164.69
  Q 141.03 162.93 142.38 164.86
  Q 142.89 165.58 142.81 164.70
  Q 142.70 163.34 141.31 163.62
  A 1.04 1.04 0.0 0 1 140.08 162.81
  Z
  M 84.04 163.41
  Q 84.01 161.89 82.83 161.10
  Q 82.54 160.90 82.40 161.23
  L 82.30 161.47
  Q 82.15 161.82 82.51 161.94
  Q 83.70 162.35 83.69 163.62
  Q 83.68 164.00 83.83 164.32
  Q 84.04 164.79 84.56 164.98
  Q 85.00 165.13 84.88 164.69
  Q 84.78 164.33 84.49 164.16
  Q 84.06 163.91 84.04 163.41
  Z
  M 95.34 162.45
  Q 95.12 163.57 95.40 164.72
  Q 95.59 165.49 95.66 164.70
  Q 95.82 163.02 95.54 161.39
  Q 95.46 160.90 95.12 161.26
  Q 94.86 161.54 95.16 161.85
  A 0.72 0.69 29.2 0 1 95.34 162.45
  Z
  M 98.19 162.92
  Q 98.47 162.82 98.42 162.53
  Q 98.29 161.68 97.70 161.12
  A 0.35 0.34 16.5 0 0 97.12 161.43
  Q 97.22 161.93 97.45 162.32
  Q 97.72 162.78 97.47 163.26
  Q 97.09 163.98 97.39 164.70
  Q 97.64 165.27 97.71 164.65
  Q 97.77 164.10 97.77 163.55
  Q 97.76 163.08 98.19 162.92
  Z
  M 133.10 161.71
  Q 132.49 163.28 133.24 164.80
  Q 133.62 165.58 133.59 164.71
  L 133.50 161.78
  Q 133.47 160.78 133.10 161.71
  Z
  M 78.58 162.26
  Q 78.47 163.50 78.62 164.63
  Q 78.75 165.56 78.95 164.64
  Q 79.20 163.46 78.86 162.23
  Q 78.65 161.45 78.58 162.26
  Z
  M 126.15 164.00
  Q 126.44 164.64 126.07 164.92
  Q 125.62 165.26 126.15 165.06
  Q 126.46 164.94 126.68 164.69
  Q 127.03 164.30 126.70 163.89
  Q 125.85 162.84 124.56 162.43
  Q 123.73 162.16 124.42 162.69
  Q 125.08 163.20 125.85 163.66
  A 0.78 0.74 -88.2 0 1 126.15 164.00
  Z
  M 92.23 164.95
  Q 91.35 164.14 91.44 162.78
  Q 91.45 162.71 91.39 162.74
  Q 91.34 162.75 91.30 162.77
  Q 91.23 162.79 91.23 162.86
  Q 91.23 163.75 91.27 164.62
  Q 91.30 165.20 91.87 165.33
  Q 92.73 165.53 93.57 165.48
  Q 94.16 165.44 93.62 165.21
  Q 93.46 165.14 93.29 165.19
  Q 92.69 165.37 92.23 164.95
  Z
  M 146.08 165.52
  Q 146.54 165.86 147.06 165.56
  Q 147.46 165.33 147.00 165.34
  L 145.60 165.35
  A 0.87 0.86 -0.3 0 1 144.72 164.49
  Q 144.72 163.56 145.28 163.24
  Q 145.49 163.12 145.26 163.04
  Q 145.19 163.02 145.14 162.98
  Q 144.73 162.62 144.66 163.16
  Q 144.61 163.55 144.43 163.91
  Q 144.16 164.48 144.44 165.00
  Q 144.72 165.54 145.38 165.38
  Q 145.76 165.28 146.08 165.52
  Z
  M 80.98 164.48
  Q 80.89 164.83 81.23 164.70
  Q 82.14 164.37 82.04 163.43
  Q 81.97 162.75 81.56 163.30
  Q 81.15 163.85 80.98 164.48
  Z
  M 100.71 164.12
  C 100.48 163.87 100.09 163.62 99.80 163.47
  Q 99.24 163.18 99.46 163.77
  Q 99.74 164.47 100.29 165.10
  A 0.38 0.38 0.0 0 0 100.94 164.90
  Q 101.01 164.45 100.71 164.12
  Z
  M 119.99 164.80
  Q 119.77 164.48 119.65 164.08
  Q 119.38 163.14 119.28 164.11
  Q 119.19 165.01 120.00 165.42
  Q 120.18 165.51 120.37 165.52
  Q 121.35 165.58 120.46 165.18
  C 120.29 165.10 120.09 164.95 119.99 164.80
  Z
  M 104.26 165.35
  C 103.60 165.28 102.96 164.96 102.82 164.25
  Q 102.66 163.45 102.46 164.24
  Q 102.25 165.04 103.01 165.40
  A 1.13 1.01 52.4 0 0 103.54 165.50
  Q 103.91 165.47 104.26 165.46
  Q 105.28 165.45 104.26 165.35
  Z"
/>
<path fill="#e50298" d="
  M 100.10 78.32
  Q 99.14 76.00 97.67 75.60
  A 2.11 2.05 -15.7 0 1 96.84 75.15
  Q 93.95 72.62 89.81 71.29
  Q 102.14 58.42 118.80 59.68
  C 128.61 60.43 136.76 64.76 143.13 72.16
  C 147.54 77.29 136.79 78.64 134.41 79.13
  A 1.70 1.68 -37.3 0 1 133.34 78.99
  C 131.29 77.99 129.78 76.19 127.81 75.12
  Q 113.14 67.18 100.10 78.32
  Z"
/>
<path fill="#a1059c" d="
  M 89.81 71.29
  Q 93.95 72.62 96.84 75.15
  A 2.11 2.05 -15.7 0 0 97.67 75.60
  Q 99.14 76.00 100.10 78.32
  Q 94.19 84.39 93.30 92.00
  C 92.40 99.75 96.01 108.42 102.43 113.00
  Q 114.52 121.64 128.15 114.24
  Q 128.81 113.88 129.54 114.00
  Q 134.07 114.74 138.34 116.16
  C 140.92 117.02 140.94 120.06 139.02 121.59
  Q 127.24 131.00 113.01 129.91
  C 111.09 129.76 109.07 128.90 107.14 129.34
  Q 97.49 131.56 90.18 133.41
  Q 88.49 133.84 86.80 133.41
  Q 86.22 133.26 86.04 132.69
  Q 85.60 131.30 85.98 129.84
  Q 87.52 123.96 88.85 118.33
  A 2.02 1.99 33.3 0 0 88.49 116.65
  Q 79.02 104.32 81.42 88.75
  Q 82.91 79.08 89.81 71.29
  Z"
/>
<circle fill="#a1059c" cx="106.94" cy="94.46" r="2.25"/>
<circle fill="#a1059c" cx="116.26" cy="94.42" r="2.24"/>
<circle fill="#a1059c" cx="125.61" cy="94.44" r="2.26"/>
<path fill="#050704" d="
  M 58.44 146.22
  C 55.76 144.11 51.73 145.21 51.48 149.06
  C 51.26 152.70 54.89 154.33 57.88 152.55
  C 58.71 152.05 59.63 152.33 60.09 153.17
  A 0.94 0.93 -28.8 0 1 59.72 154.43
  Q 57.07 155.86 54.08 155.42
  C 47.46 154.44 47.00 145.33 53.12 143.28
  Q 56.27 142.22 59.45 144.09
  Q 60.43 144.66 59.89 145.66
  Q 59.73 145.96 59.47 146.19
  A 0.82 0.80 -46.2 0 1 58.44 146.22
  Z"
/>
<path fill="#050704" d="
  M 70.74 150.87
  L 71.03 154.78
  A 0.58 0.58 0.0 0 1 70.43 155.40
  L 68.80 155.34
  A 0.58 0.58 0.0 0 1 68.24 154.76
  L 68.31 143.55
  A 0.58 0.58 0.0 0 1 68.94 142.98
  L 70.38 143.10
  A 0.58 0.58 0.0 0 1 70.91 143.69
  L 70.82 147.41
  A 0.58 0.58 0.0 0 0 71.40 148.01
  L 76.17 148.07
  A 0.58 0.58 0.0 0 0 76.76 147.49
  L 76.73 143.61
  A 0.58 0.58 0.0 0 1 77.29 143.03
  L 78.85 142.96
  A 0.58 0.58 0.0 0 1 79.45 143.54
  L 79.48 154.85
  A 0.58 0.58 0.0 0 1 78.89 155.43
  L 77.32 155.41
  A 0.58 0.58 0.0 0 1 76.75 154.83
  L 76.78 150.81
  A 0.58 0.58 0.0 0 0 76.19 150.22
  L 71.31 150.25
  A 0.58 0.58 0.0 0 0 70.74 150.87
  Z"
/>
<path fill="#050704" d="
  M 95.92 152.65
  L 91.01 152.68
  A 0.76 0.74 -82.4 0 0 90.29 153.24
  L 89.93 154.59
  Q 89.77 155.23 89.11 155.28
  L 87.27 155.43
  Q 86.56 155.49 86.85 154.83
  L 91.70 144.00
  A 1.90 1.90 0.0 0 1 95.17 143.99
  L 100.16 154.98
  Q 100.26 155.20 100.03 155.27
  Q 96.96 156.18 96.59 153.24
  Q 96.52 152.64 95.92 152.65
  Z
  M 91.56 150.26
  A 0.34 0.34 0.0 0 0 91.87 150.72
  L 94.97 150.74
  A 0.34 0.34 0.0 0 0 95.29 150.28
  L 93.76 146.27
  A 0.34 0.34 0.0 0 0 93.13 146.27
  L 91.56 150.26
  Z"
/>
<path fill="#050704" d="
  M 131.23 152.09
  L 125.56 152.12
  Q 124.98 152.13 124.70 152.63
  L 123.00 155.68
  Q 122.96 155.75 122.89 155.72
  L 122.60 155.59
  Q 122.14 155.38 122.35 154.92
  L 127.49 143.56
  A 0.91 0.91 0.0 0 1 129.15 143.56
  L 134.32 154.88
  Q 134.49 155.27 134.11 155.45
  L 133.81 155.58
  Q 133.61 155.68 133.50 155.47
  L 131.95 152.53
  Q 131.72 152.09 131.23 152.09
  Z
  M 125.44 150.77
  A 0.35 0.35 0.0 0 0 125.77 151.26
  L 130.90 151.21
  A 0.35 0.35 0.0 0 0 131.21 150.72
  L 128.60 144.87
  A 0.35 0.35 0.0 0 0 127.95 144.87
  L 125.44 150.77
  Z"
/>
<path fill="#050704" d="
  M 143.56 152.05
  Q 143.52 153.45 143.65 155.24
  Q 143.65 155.30 143.60 155.31
  L 142.99 155.51
  A 0.36 0.36 0.0 0 1 142.51 155.17
  L 142.46 143.58
  Q 142.46 143.04 143.00 143.02
  C 146.66 142.86 152.38 142.50 151.96 147.97
  C 151.68 151.78 146.79 151.58 144.22 151.44
  Q 143.58 151.41 143.56 152.05
  Z
  M 143.49 144.36
  L 143.55 150.22
  A 0.32 0.32 0.0 0 0 143.87 150.54
  L 146.90 150.51
  A 3.99 3.02 -0.5 0 0 150.86 147.46
  L 150.86 147.00
  A 3.99 3.02 -0.5 0 0 146.84 144.01
  L 143.81 144.04
  A 0.32 0.32 0.0 0 0 143.49 144.36
  Z"
/>
<path fill="#050704" d="
  M 161.77 152.24
  L 161.90 155.01
  Q 161.92 155.46 161.47 155.46
  L 161.18 155.46
  Q 160.74 155.46 160.74 155.01
  L 160.71 143.52
  Q 160.71 143.02 161.21 143.00
  C 164.26 142.90 170.41 142.51 170.29 147.27
  C 170.17 151.78 165.73 151.56 162.56 151.44
  A 0.76 0.76 0.0 0 0 161.77 152.24
  Z
  M 161.81 144.70
  L 161.79 149.80
  A 0.64 0.64 0.0 0 0 162.43 150.44
  L 165.51 150.45
  A 3.52 2.76 0.2 0 0 169.04 147.70
  L 169.04 146.84
  A 3.52 2.76 0.2 0 0 165.53 144.07
  L 162.45 144.06
  A 0.64 0.64 0.0 0 0 161.81 144.70
  Z"
/>
<path fill="#050704" d="
  M 112.16 145.79
  L 112.13 154.77
  Q 112.13 155.43 111.48 155.43
  L 110.21 155.43
  Q 109.49 155.43 109.49 154.71
  L 109.51 145.76
  Q 109.51 145.25 109.01 145.26
  L 106.23 145.29
  A 0.89 0.87 -2.1 0 1 105.34 144.48
  L 105.31 143.99
  Q 105.25 143.23 106.01 143.23
  L 115.31 143.19
  A 0.88 0.87 85.0 0 1 116.18 143.93
  Q 116.23 144.33 116.15 144.74
  Q 116.04 145.28 115.48 145.28
  L 112.71 145.25
  Q 112.16 145.24 112.16 145.79
  Z"
/>
<path fill="#f2f2f2" d="
  M 143.49 144.36
  A 0.32 0.32 0.0 0 1 143.81 144.04
  L 146.84 144.01
  A 3.99 3.02 -0.5 0 1 150.86 147.00
  L 150.86 147.46
  A 3.99 3.02 -0.5 0 1 146.90 150.51
  L 143.87 150.54
  A 0.32 0.32 0.0 0 1 143.55 150.22
  L 143.49 144.36
  Z"
/>
<path fill="#f2f2f2" d="
  M 161.81 144.70
  A 0.64 0.64 0.0 0 1 162.45 144.06
  L 165.53 144.07
  A 3.52 2.76 0.2 0 1 169.04 146.84
  L 169.04 147.70
  A 3.52 2.76 0.2 0 1 165.51 150.45
  L 162.43 150.44
  A 0.64 0.64 0.0 0 1 161.79 149.80
  L 161.81 144.70
  Z"
/>
<path fill="#f2f2f2" d="
  M 125.44 150.77
  L 127.95 144.87
  A 0.35 0.35 0.0 0 1 128.60 144.87
  L 131.21 150.72
  A 0.35 0.35 0.0 0 1 130.90 151.21
  L 125.77 151.26
  A 0.35 0.35 0.0 0 1 125.44 150.77
  Z"
/>
<path fill="#f2f2f2" d="
  M 91.56 150.26
  L 93.13 146.27
  A 0.34 0.34 0.0 0 1 93.76 146.27
  L 95.29 150.28
  A 0.34 0.34 0.0 0 1 94.97 150.74
  L 91.87 150.72
  A 0.34 0.34 0.0 0 1 91.56 150.26
  Z"
/>
<path fill="#050704" d="
  M 136.63 165.35
  Q 136.69 165.37 136.74 165.36
  Q 137.01 165.30 136.76 165.42
  Q 136.34 165.62 135.95 165.54
  Q 135.43 165.43 135.33 164.91
  Q 134.92 162.78 135.65 160.67
  A 0.15 0.14 14.5 0 1 135.81 160.58
  L 136.08 160.63
  A 0.21 0.21 0.0 0 1 136.23 160.91
  Q 135.24 163.32 136.10 164.96
  Q 136.26 165.28 136.63 165.35
  Z"
/>
<path fill="#050704" d="
  M 86.13 162.29
  A 1.33 1.31 42.1 0 0 86.21 163.69
  Q 87.49 165.49 88.78 164.86
  A 0.77 0.77 0.0 0 0 89.21 164.14
  Q 89.20 163.75 89.48 163.49
  Q 89.89 163.10 89.87 163.67
  C 89.81 165.18 88.35 166.02 87.09 165.22
  Q 85.95 164.48 85.68 163.03
  Q 85.53 162.20 86.13 161.58
  Q 87.40 160.30 89.12 160.90
  Q 90.25 161.29 89.07 161.16
  Q 86.89 160.91 86.13 162.29
  Z"
/>
<path fill="#050704" d="
  M 103.16 163.12
  A 0.11 0.11 0.0 0 1 103.09 163.30
  L 102.78 163.36
  Q 102.75 163.36 102.72 163.36
  Q 102.13 163.32 102.61 162.23
  A 1.45 1.35 55.3 0 0 102.71 161.53
  Q 102.63 160.75 103.16 160.76
  Q 103.72 160.78 103.28 161.12
  Q 102.23 161.96 103.16 163.12
  Z"
/>
<path fill="#050704" d="
  M 110.21 161.16
  Q 108.89 161.60 108.77 163.03
  A 1.65 1.63 21.0 0 0 109.43 164.49
  Q 111.53 166.04 112.55 163.83
  Q 112.63 163.65 112.80 163.75
  L 112.81 163.76
  Q 112.99 163.86 112.89 164.05
  Q 112.36 165.11 111.33 165.51
  A 1.77 1.76 -33.7 0 1 109.50 165.15
  C 107.29 163.09 108.64 160.28 111.40 160.76
  Q 111.68 160.81 111.90 160.99
  Q 112.61 161.55 111.72 161.38
  Q 111.49 161.34 111.28 161.23
  Q 110.76 160.97 110.21 161.16
  Z"
/>
<path fill="#050704" d="
  M 121.75 160.89
  Q 120.49 160.96 119.76 161.85
  Q 118.97 162.79 119.38 161.63
  L 119.50 161.28
  Q 119.69 160.73 120.27 160.74
  Q 121.23 160.75 122.08 160.86
  Q 122.48 160.91 122.07 160.88
  Q 122.06 160.88 121.75 160.89
  Z"
/>
<path fill="#050704" d="
  M 129.73 164.85
  L 129.74 161.26
  Q 129.74 160.24 130.12 161.19
  Q 130.85 163.07 130.00 164.91
  Q 129.73 165.52 129.73 164.85
  Z"
/>
<path fill="#050704" d="
  M 140.08 162.81
  A 1.04 1.04 0.0 0 0 141.31 163.62
  Q 142.70 163.34 142.81 164.70
  Q 142.89 165.58 142.38 164.86
  Q 141.03 162.93 139.84 164.69
  Q 139.75 164.82 139.74 164.66
  L 139.62 161.40
  Q 139.62 161.26 139.74 161.20
  Q 142.37 159.80 143.15 162.29
  Q 143.21 162.47 143.03 162.52
  L 143.03 162.52
  Q 143.02 162.53 143.01 162.53
  Q 142.60 162.61 142.66 162.03
  A 0.85 0.84 -87.2 0 0 141.82 161.10
  Q 139.72 161.10 140.08 162.81
  Z"
/>
<path fill="#050704" d="
  M 84.49 164.16
  Q 84.78 164.33 84.88 164.69
  Q 85.00 165.13 84.56 164.98
  Q 84.04 164.79 83.83 164.32
  Q 83.68 164.00 83.69 163.62
  Q 83.70 162.35 82.51 161.94
  Q 82.15 161.82 82.30 161.47
  L 82.40 161.23
  Q 82.54 160.90 82.83 161.10
  Q 84.01 161.89 84.04 163.41
  Q 84.06 163.91 84.49 164.16
  Z"
/>
<path fill="#050704" d="
  M 95.16 161.85
  Q 94.86 161.54 95.12 161.26
  Q 95.46 160.90 95.54 161.39
  Q 95.82 163.02 95.66 164.70
  Q 95.59 165.49 95.40 164.72
  Q 95.12 163.57 95.34 162.45
  A 0.72 0.69 29.2 0 0 95.16 161.85
  Z"
/>
<path fill="#050704" d="
  M 97.77 163.55
  Q 97.77 164.10 97.71 164.65
  Q 97.64 165.27 97.39 164.70
  Q 97.09 163.98 97.47 163.26
  Q 97.72 162.78 97.45 162.32
  Q 97.22 161.93 97.12 161.43
  A 0.35 0.34 16.5 0 1 97.70 161.12
  Q 98.29 161.68 98.42 162.53
  Q 98.47 162.82 98.19 162.92
  Q 97.76 163.08 97.77 163.55
  Z"
/>
<path fill="#050704" d="
  M 133.50 161.78
  L 133.59 164.71
  Q 133.62 165.58 133.24 164.80
  Q 132.49 163.28 133.10 161.71
  Q 133.47 160.78 133.50 161.78
  Z"
/>
<path fill="#050704" d="
  M 78.58 162.26
  Q 78.65 161.45 78.86 162.23
  Q 79.20 163.46 78.95 164.64
  Q 78.75 165.56 78.62 164.63
  Q 78.47 163.50 78.58 162.26
  Z"
/>
<path fill="#050704" d="
  M 126.15 164.00
  A 0.78 0.74 -88.2 0 0 125.85 163.66
  Q 125.08 163.20 124.42 162.69
  Q 123.73 162.16 124.56 162.43
  Q 125.85 162.84 126.70 163.89
  Q 127.03 164.30 126.68 164.69
  Q 126.46 164.94 126.15 165.06
  Q 125.62 165.26 126.07 164.92
  Q 126.44 164.64 126.15 164.00
  Z"
/>
<path fill="#050704" d="
  M 93.29 165.19
  Q 93.46 165.14 93.62 165.21
  Q 94.16 165.44 93.57 165.48
  Q 92.73 165.53 91.87 165.33
  Q 91.30 165.20 91.27 164.62
  Q 91.23 163.75 91.23 162.86
  Q 91.23 162.79 91.30 162.77
  Q 91.34 162.75 91.39 162.74
  Q 91.45 162.71 91.44 162.78
  Q 91.35 164.14 92.23 164.95
  Q 92.69 165.37 93.29 165.19
  Z"
/>
<path fill="#050704" d="
  M 145.38 165.38
  Q 144.72 165.54 144.44 165.00
  Q 144.16 164.48 144.43 163.91
  Q 144.61 163.55 144.66 163.16
  Q 144.73 162.62 145.14 162.98
  Q 145.19 163.02 145.26 163.04
  Q 145.49 163.12 145.28 163.24
  Q 144.72 163.56 144.72 164.49
  A 0.87 0.86 -0.3 0 0 145.60 165.35
  L 147.00 165.34
  Q 147.46 165.33 147.06 165.56
  Q 146.54 165.86 146.08 165.52
  Q 145.76 165.28 145.38 165.38
  Z"
/>
<path fill="#050704" d="
  M 80.98 164.48
  Q 81.15 163.85 81.56 163.30
  Q 81.97 162.75 82.04 163.43
  Q 82.14 164.37 81.23 164.70
  Q 80.89 164.83 80.98 164.48
  Z"
/>
<path fill="#050704" d="
  M 100.71 164.12
  Q 101.01 164.45 100.94 164.90
  A 0.38 0.38 0.0 0 1 100.29 165.10
  Q 99.74 164.47 99.46 163.77
  Q 99.24 163.18 99.80 163.47
  C 100.09 163.62 100.48 163.87 100.71 164.12
  Z"
/>
<path fill="#050704" d="
  M 119.99 164.80
  C 120.09 164.95 120.29 165.10 120.46 165.18
  Q 121.35 165.58 120.37 165.52
  Q 120.18 165.51 120.00 165.42
  Q 119.19 165.01 119.28 164.11
  Q 119.38 163.14 119.65 164.08
  Q 119.77 164.48 119.99 164.80
  Z"
/>
<path fill="#050704" d="
  M 102.82 164.25
  C 102.96 164.96 103.60 165.28 104.26 165.35
  Q 105.28 165.45 104.26 165.46
  Q 103.91 165.47 103.54 165.50
  A 1.13 1.01 52.4 0 1 103.01 165.40
  Q 102.25 165.04 102.46 164.24
  Q 102.66 163.45 102.82 164.25
  Z"
/>
</svg>
